<?xml version="1.0" encoding="UTF-8" standalone="no"?>
<!-- Created with Inkscape (http://www.inkscape.org/) -->

<svg
   xmlns:dc="http://purl.org/dc/elements/1.1/"
   xmlns:cc="http://creativecommons.org/ns#"
   xmlns:rdf="http://www.w3.org/1999/02/22-rdf-syntax-ns#"
   xmlns:svg="http://www.w3.org/2000/svg"
   xmlns="http://www.w3.org/2000/svg"
   xmlns:sodipodi="http://sodipodi.sourceforge.net/DTD/sodipodi-0.dtd"
   xmlns:inkscape="http://www.inkscape.org/namespaces/inkscape"
   width="210mm"
   height="297mm"
   viewBox="0 0 744.09448819 1052.3622047"
   id="svg2"
   version="1.1"
   inkscape:version="0.91 r13725"
   sodipodi:docname="WaitLogo.svg">
  <defs
     id="defs4">
    <filter
       inkscape:collect="always"
       style="color-interpolation-filters:sRGB"
       id="filter4290"
       x="-0.036000615"
       width="1.0720012"
       y="-0.035999385"
       height="1.0719988">
      <feGaussianBlur
         inkscape:collect="always"
         stdDeviation="4.2945558"
         id="feGaussianBlur4292" />
    </filter>
  </defs>
  <sodipodi:namedview
     id="base"
     pagecolor="#ffffff"
     bordercolor="#666666"
     borderopacity="1.0"
     inkscape:pageopacity="0.0"
     inkscape:pageshadow="2"
     inkscape:zoom="0.7"
     inkscape:cx="-172.2664"
     inkscape:cy="483.2828"
     inkscape:document-units="px"
     inkscape:current-layer="layer1"
     showgrid="false"
     inkscape:window-width="1920"
     inkscape:window-height="1017"
     inkscape:window-x="-8"
     inkscape:window-y="-8"
     inkscape:window-maximized="1"
     showguides="true"
     inkscape:guide-bbox="true"
     inkscape:snap-to-guides="true"
     inkscape:snap-grids="true"
     inkscape:snap-bbox="true">
    <inkscape:grid
       type="xygrid"
       id="grid3368" />
  </sodipodi:namedview>
  <metadata
     id="metadata7">
    <rdf:RDF>
      <cc:Work
         rdf:about="">
        <dc:format>image/svg+xml</dc:format>
        <dc:type
           rdf:resource="http://purl.org/dc/dcmitype/StillImage" />
        <dc:title></dc:title>
      </cc:Work>
    </rdf:RDF>
  </metadata>
  <g
     inkscape:label="Layer 1"
     inkscape:groupmode="layer"
     id="layer1">
    <g
       id="g4307"
       inkscape:export-filename="C:\workspaces\Wait\assets\spinner.png"
       inkscape:export-xdpi="90"
       inkscape:export-ydpi="90"
       transform="translate(17.142857,-305.71429)">
      <g
         style="fill:#000000;fill-opacity:1;stroke:none;filter:url(#filter4290)"
         transform="translate(-15.152288,9.0913732)"
         id="g4198">
        <path
           inkscape:connector-curvature="0"
           id="path4200"
           d="m 319.64453,384.52734 a 86.428574,86.428574 0 0 0 -2.45312,1.09766 86.428574,86.428574 0 0 0 -7.49414,4.29883 86.428574,86.428574 0 0 0 -7.02735,5.02539 86.428574,86.428574 0 0 0 -6.49023,5.70117 86.428574,86.428574 0 0 0 -5.88867,6.32227 86.428574,86.428574 0 0 0 -5.22852,6.87695 86.428574,86.428574 0 0 0 -4.51562,7.36523 86.428574,86.428574 0 0 0 -3.58985,7.43164 102.14286,102.14286 0 0 1 5.6875,-1.27734 102.14286,102.14286 0 0 1 10.13672,-1.23047 102.14286,102.14286 0 0 1 7.22461,-0.25586 102.14286,102.14286 0 0 1 10.19726,0.51172 102.14286,102.14286 0 0 1 10.09571,1.52539 102.14286,102.14286 0 0 1 0.14844,0.0371 86.428574,86.428574 0 0 1 57.7207,-21.89258 145,145 0 0 0 -58.52344,-21.53711 z m -50.82226,2.06055 a 145,145 0 0 0 -55.82032,25.66406 86.428574,86.428574 0 0 0 -0.8125,2.12891 86.428574,86.428574 0 0 0 -2.25976,8.33789 86.428574,86.428574 0 0 0 -1.41602,8.52344 86.428574,86.428574 0 0 0 -0.55859,8.62109 86.428574,86.428574 0 0 0 0.30664,8.63281 86.428574,86.428574 0 0 0 1.16601,8.56055 86.428574,86.428574 0 0 0 2.01563,8.40039 86.428574,86.428574 0 0 0 2.63281,7.55078 102.14286,102.14286 0 0 1 1.62695,-2.65625 102.14286,102.14286 0 0 1 6.17969,-8.12695 102.14286,102.14286 0 0 1 6.95899,-7.4707 102.14286,102.14286 0 0 1 7.67187,-6.73829 102.14286,102.14286 0 0 1 7.90039,-5.65039 86.428574,86.428574 0 0 1 24.40821,-55.77734 z m 117.46875,48.7168 a 86.428574,86.428574 0 0 0 -8.63477,0.30664 86.428574,86.428574 0 0 0 -8.56055,1.16601 86.428574,86.428574 0 0 0 -8.40039,2.01563 86.428574,86.428574 0 0 0 -7.04883,2.45703 102.14286,102.14286 0 0 1 4.03321,2.47461 102.14286,102.14286 0 0 1 8.1289,6.17773 102.14286,102.14286 0 0 1 7.47071,6.96094 102.14286,102.14286 0 0 1 6.73828,7.66992 102.14286,102.14286 0 0 1 5.20703,7.28125 86.428574,86.428574 0 0 1 56.64844,26.83594 145,145 0 0 0 -26.22071,-57.63086 86.428574,86.428574 0 0 0 -3.8789,-1.48047 86.428574,86.428574 0 0 0 -8.33985,-2.25976 86.428574,86.428574 0 0 0 -8.52148,-1.41602 86.428574,86.428574 0 0 0 -8.62109,-0.55859 z m -207.60157,13.40234 a 145,145 0 0 0 -21.82031,57.11914 86.428574,86.428574 0 0 0 1.4043,3.13672 86.428574,86.428574 0 0 0 4.29883,7.49414 86.428574,86.428574 0 0 0 5.02539,7.02735 86.428574,86.428574 0 0 0 5.70117,6.49023 86.428574,86.428574 0 0 0 6.32226,5.88867 86.428574,86.428574 0 0 0 6.87696,5.22852 86.428574,86.428574 0 0 0 7.36523,4.51562 86.428574,86.428574 0 0 0 6.20899,3 102.14286,102.14286 0 0 1 -0.72266,-3.2207 102.14286,102.14286 0 0 1 -1.23047,-10.13477 102.14286,102.14286 0 0 1 -0.25586,-7.22656 102.14286,102.14286 0 0 1 0.50977,-10.19727 102.14286,102.14286 0 0 1 1.52539,-10.09374 102.14286,102.14286 0 0 1 0.56054,-2.19141 86.428574,86.428574 0 0 1 -21.76953,-56.83594 z m 220.75586,56.53516 a 102.14286,102.14286 0 0 1 1.2168,5.42383 102.14286,102.14286 0 0 1 1.23047,10.13476 102.14286,102.14286 0 0 1 0.25586,7.22461 102.14286,102.14286 0 0 1 -0.50977,10.19727 102.14286,102.14286 0 0 1 -1.52539,10.0957 102.14286,102.14286 0 0 1 -0.33984,1.33008 86.428574,86.428574 0 0 1 20.18945,59.45898 145,145 0 0 0 23.20508,-58.67187 86.428574,86.428574 0 0 0 -2.63867,-5.89453 86.428574,86.428574 0 0 0 -4.29883,-7.49414 86.428574,86.428574 0 0 0 -5.02539,-7.02735 86.428574,86.428574 0 0 0 -5.70117,-6.49023 86.428574,86.428574 0 0 0 -6.32227,-5.88868 86.428574,86.428574 0 0 0 -6.87695,-5.22851 86.428574,86.428574 0 0 0 -7.36524,-4.51563 86.428574,86.428574 0 0 0 -5.49414,-2.65429 z m -241.67187,50.51562 a 145,145 0 0 0 24.19336,56.27539 86.428574,86.428574 0 0 0 5.06445,1.93164 86.428574,86.428574 0 0 0 8.33789,2.25977 86.428574,86.428574 0 0 0 8.52344,1.41406 86.428574,86.428574 0 0 0 8.61914,0.5586 86.428574,86.428574 0 0 0 8.63476,-0.30665 86.428574,86.428574 0 0 0 8.56055,-1.16601 86.428574,86.428574 0 0 0 8.40039,-2.01367 86.428574,86.428574 0 0 0 5.17188,-1.80274 102.14286,102.14286 0 0 1 -0.94727,-0.58008 102.14286,102.14286 0 0 1 -8.12891,-6.17968 102.14286,102.14286 0 0 1 -7.4707,-6.95899 102.14286,102.14286 0 0 1 -6.73828,-7.66992 102.14286,102.14286 0 0 1 -5.93945,-8.30469 102.14286,102.14286 0 0 1 -0.89844,-1.56836 86.428574,86.428574 0 0 1 -55.38281,-25.88867 z m 227.96094,27.61914 a 102.14286,102.14286 0 0 1 -1.42579,2.32422 102.14286,102.14286 0 0 1 -6.17968,8.12695 102.14286,102.14286 0 0 1 -6.95899,7.47071 102.14286,102.14286 0 0 1 -7.67187,6.73828 102.14286,102.14286 0 0 1 -8.30469,5.93945 102.14286,102.14286 0 0 1 -1.08984,0.625 86.428574,86.428574 0 0 1 -27.95313,55.88282 145,145 0 0 0 57.82813,-24.45118 86.428574,86.428574 0 0 0 2.63671,-6.91015 86.428574,86.428574 0 0 0 2.25977,-8.33985 86.428574,86.428574 0 0 0 1.41406,-8.52148 86.428574,86.428574 0 0 0 0.5586,-8.6211 86.428574,86.428574 0 0 0 -0.30664,-8.63476 86.428574,86.428574 0 0 0 -1.16602,-8.55859 86.428574,86.428574 0 0 0 -2.01367,-8.40235 86.428574,86.428574 0 0 0 -1.62695,-4.66797 z m -109.41407,43.89063 a 86.428574,86.428574 0 0 1 -58.40234,20.07617 145,145 0 0 0 57.08594,23.49219 86.428574,86.428574 0 0 0 6.60742,-2.95703 86.428574,86.428574 0 0 0 7.49414,-4.29883 86.428574,86.428574 0 0 0 7.02734,-5.02539 86.428574,86.428574 0 0 0 6.49024,-5.70117 86.428574,86.428574 0 0 0 5.88867,-6.32227 86.428574,86.428574 0 0 0 5.22851,-6.87695 86.428574,86.428574 0 0 0 4.51563,-7.36524 86.428574,86.428574 0 0 0 2.0625,-4.26758 102.14286,102.14286 0 0 1 -2.95117,0.66211 102.14286,102.14286 0 0 1 -10.13672,1.23047 102.14286,102.14286 0 0 1 -7.22461,0.25586 102.14286,102.14286 0 0 1 -10.19727,-0.51172 102.14286,102.14286 0 0 1 -10.0957,-1.52539 102.14286,102.14286 0 0 1 -3.39258,-0.86523 z"
           style="fill:#000000;fill-opacity:1;stroke:none;stroke-width:2.53900003;stroke-miterlimit:4;stroke-dasharray:none;stroke-dashoffset:0;stroke-opacity:1" />
      </g>
      <g
         style="fill:#00ff00"
         transform="translate(-8.0812204,3.0304576)"
         id="g4195">
        <path
           inkscape:connector-curvature="0"
           style="fill:#00ff00;stroke:#000000;stroke-width:2.53900003;stroke-miterlimit:4;stroke-dasharray:none;stroke-dashoffset:0;stroke-opacity:1"
           d="m 319.64453,384.52734 a 86.428574,86.428574 0 0 0 -2.45312,1.09766 86.428574,86.428574 0 0 0 -7.49414,4.29883 86.428574,86.428574 0 0 0 -7.02735,5.02539 86.428574,86.428574 0 0 0 -6.49023,5.70117 86.428574,86.428574 0 0 0 -5.88867,6.32227 86.428574,86.428574 0 0 0 -5.22852,6.87695 86.428574,86.428574 0 0 0 -4.51562,7.36523 86.428574,86.428574 0 0 0 -3.58985,7.43164 102.14286,102.14286 0 0 1 5.6875,-1.27734 102.14286,102.14286 0 0 1 10.13672,-1.23047 102.14286,102.14286 0 0 1 7.22461,-0.25586 102.14286,102.14286 0 0 1 10.19726,0.51172 102.14286,102.14286 0 0 1 10.09571,1.52539 102.14286,102.14286 0 0 1 0.14844,0.0371 86.428574,86.428574 0 0 1 57.7207,-21.89258 145,145 0 0 0 -58.52344,-21.53711 z m -50.82226,2.06055 a 145,145 0 0 0 -55.82032,25.66406 86.428574,86.428574 0 0 0 -0.8125,2.12891 86.428574,86.428574 0 0 0 -2.25976,8.33789 86.428574,86.428574 0 0 0 -1.41602,8.52344 86.428574,86.428574 0 0 0 -0.55859,8.62109 86.428574,86.428574 0 0 0 0.30664,8.63281 86.428574,86.428574 0 0 0 1.16601,8.56055 86.428574,86.428574 0 0 0 2.01563,8.40039 86.428574,86.428574 0 0 0 2.63281,7.55078 102.14286,102.14286 0 0 1 1.62695,-2.65625 102.14286,102.14286 0 0 1 6.17969,-8.12695 102.14286,102.14286 0 0 1 6.95899,-7.4707 102.14286,102.14286 0 0 1 7.67187,-6.73829 102.14286,102.14286 0 0 1 7.90039,-5.65039 86.428574,86.428574 0 0 1 24.40821,-55.77734 z m 117.46875,48.7168 a 86.428574,86.428574 0 0 0 -8.63477,0.30664 86.428574,86.428574 0 0 0 -8.56055,1.16601 86.428574,86.428574 0 0 0 -8.40039,2.01563 86.428574,86.428574 0 0 0 -7.04883,2.45703 102.14286,102.14286 0 0 1 4.03321,2.47461 102.14286,102.14286 0 0 1 8.1289,6.17773 102.14286,102.14286 0 0 1 7.47071,6.96094 102.14286,102.14286 0 0 1 6.73828,7.66992 102.14286,102.14286 0 0 1 5.20703,7.28125 86.428574,86.428574 0 0 1 56.64844,26.83594 145,145 0 0 0 -26.22071,-57.63086 86.428574,86.428574 0 0 0 -3.8789,-1.48047 86.428574,86.428574 0 0 0 -8.33985,-2.25976 86.428574,86.428574 0 0 0 -8.52148,-1.41602 86.428574,86.428574 0 0 0 -8.62109,-0.55859 z m -207.60157,13.40234 a 145,145 0 0 0 -21.82031,57.11914 86.428574,86.428574 0 0 0 1.4043,3.13672 86.428574,86.428574 0 0 0 4.29883,7.49414 86.428574,86.428574 0 0 0 5.02539,7.02735 86.428574,86.428574 0 0 0 5.70117,6.49023 86.428574,86.428574 0 0 0 6.32226,5.88867 86.428574,86.428574 0 0 0 6.87696,5.22852 86.428574,86.428574 0 0 0 7.36523,4.51562 86.428574,86.428574 0 0 0 6.20899,3 102.14286,102.14286 0 0 1 -0.72266,-3.2207 102.14286,102.14286 0 0 1 -1.23047,-10.13477 102.14286,102.14286 0 0 1 -0.25586,-7.22656 102.14286,102.14286 0 0 1 0.50977,-10.19727 102.14286,102.14286 0 0 1 1.52539,-10.09374 102.14286,102.14286 0 0 1 0.56054,-2.19141 86.428574,86.428574 0 0 1 -21.76953,-56.83594 z m 220.75586,56.53516 a 102.14286,102.14286 0 0 1 1.2168,5.42383 102.14286,102.14286 0 0 1 1.23047,10.13476 102.14286,102.14286 0 0 1 0.25586,7.22461 102.14286,102.14286 0 0 1 -0.50977,10.19727 102.14286,102.14286 0 0 1 -1.52539,10.0957 102.14286,102.14286 0 0 1 -0.33984,1.33008 86.428574,86.428574 0 0 1 20.18945,59.45898 145,145 0 0 0 23.20508,-58.67187 86.428574,86.428574 0 0 0 -2.63867,-5.89453 86.428574,86.428574 0 0 0 -4.29883,-7.49414 86.428574,86.428574 0 0 0 -5.02539,-7.02735 86.428574,86.428574 0 0 0 -5.70117,-6.49023 86.428574,86.428574 0 0 0 -6.32227,-5.88868 86.428574,86.428574 0 0 0 -6.87695,-5.22851 86.428574,86.428574 0 0 0 -7.36524,-4.51563 86.428574,86.428574 0 0 0 -5.49414,-2.65429 z m -241.67187,50.51562 a 145,145 0 0 0 24.19336,56.27539 86.428574,86.428574 0 0 0 5.06445,1.93164 86.428574,86.428574 0 0 0 8.33789,2.25977 86.428574,86.428574 0 0 0 8.52344,1.41406 86.428574,86.428574 0 0 0 8.61914,0.5586 86.428574,86.428574 0 0 0 8.63476,-0.30665 86.428574,86.428574 0 0 0 8.56055,-1.16601 86.428574,86.428574 0 0 0 8.40039,-2.01367 86.428574,86.428574 0 0 0 5.17188,-1.80274 102.14286,102.14286 0 0 1 -0.94727,-0.58008 102.14286,102.14286 0 0 1 -8.12891,-6.17968 102.14286,102.14286 0 0 1 -7.4707,-6.95899 102.14286,102.14286 0 0 1 -6.73828,-7.66992 102.14286,102.14286 0 0 1 -5.93945,-8.30469 102.14286,102.14286 0 0 1 -0.89844,-1.56836 86.428574,86.428574 0 0 1 -55.38281,-25.88867 z m 227.96094,27.61914 a 102.14286,102.14286 0 0 1 -1.42579,2.32422 102.14286,102.14286 0 0 1 -6.17968,8.12695 102.14286,102.14286 0 0 1 -6.95899,7.47071 102.14286,102.14286 0 0 1 -7.67187,6.73828 102.14286,102.14286 0 0 1 -8.30469,5.93945 102.14286,102.14286 0 0 1 -1.08984,0.625 86.428574,86.428574 0 0 1 -27.95313,55.88282 145,145 0 0 0 57.82813,-24.45118 86.428574,86.428574 0 0 0 2.63671,-6.91015 86.428574,86.428574 0 0 0 2.25977,-8.33985 86.428574,86.428574 0 0 0 1.41406,-8.52148 86.428574,86.428574 0 0 0 0.5586,-8.6211 86.428574,86.428574 0 0 0 -0.30664,-8.63476 86.428574,86.428574 0 0 0 -1.16602,-8.55859 86.428574,86.428574 0 0 0 -2.01367,-8.40235 86.428574,86.428574 0 0 0 -1.62695,-4.66797 z m -109.41407,43.89063 a 86.428574,86.428574 0 0 1 -58.40234,20.07617 145,145 0 0 0 57.08594,23.49219 86.428574,86.428574 0 0 0 6.60742,-2.95703 86.428574,86.428574 0 0 0 7.49414,-4.29883 86.428574,86.428574 0 0 0 7.02734,-5.02539 86.428574,86.428574 0 0 0 6.49024,-5.70117 86.428574,86.428574 0 0 0 5.88867,-6.32227 86.428574,86.428574 0 0 0 5.22851,-6.87695 86.428574,86.428574 0 0 0 4.51563,-7.36524 86.428574,86.428574 0 0 0 2.0625,-4.26758 102.14286,102.14286 0 0 1 -2.95117,0.66211 102.14286,102.14286 0 0 1 -10.13672,1.23047 102.14286,102.14286 0 0 1 -7.22461,0.25586 102.14286,102.14286 0 0 1 -10.19727,-0.51172 102.14286,102.14286 0 0 1 -10.0957,-1.52539 102.14286,102.14286 0 0 1 -3.39258,-0.86523 z"
           id="path3336" />
      </g>
    </g>
    <g
       style="font-style:normal;font-weight:normal;font-size:63.76444244px;line-height:125%;font-family:sans-serif;letter-spacing:0px;word-spacing:0px;fill:#ff0000;fill-opacity:1;stroke:#000000;stroke-width:2.1;stroke-linecap:round;stroke-linejoin:round;stroke-miterlimit:4;stroke-dasharray:none;stroke-opacity:1"
       id="text4234">
      <path
         d="m 269.59477,509.39376 -11.80016,44.64756 -11.14632,0 -7.41013,-28.64418 q -0.59156,-2.24172 -0.7161,-5.01273 l -0.12454,0 q -0.28022,3.05122 -0.80951,5.01273 l -7.59694,28.64418 -11.61335,0 -11.73788,-44.64756 10.99064,0 6.28927,29.7339 q 0.40476,1.89924 0.59157,5.10614 l 0.18681,0 q 0.12454,-2.39739 0.90291,-5.23068 l 8.0951,-29.60936 10.7727,0 7.31672,29.98298 q 0.40475,1.65016 0.7161,4.79479 l 0.12454,0 q 0.12454,-2.45966 0.65384,-4.9816 l 6.16473,-29.79617 10.15,0 z"
         style="font-style:normal;font-variant:normal;font-weight:bold;font-stretch:normal;font-family:'Segoe UI';-inkscape-font-specification:'Segoe UI Bold';fill:#ff0000;stroke:#000000;stroke-width:2.1;stroke-linecap:round;stroke-linejoin:round;stroke-miterlimit:4;stroke-dasharray:none;stroke-opacity:1"
         id="path4299" />
      <path
         d="m 312.3431,554.04132 -10.95951,0 -3.17577,-9.93206 -15.87884,0 -3.14464,9.93206 -10.89724,0 16.25246,-44.64756 11.9247,0 15.87884,44.64756 z m -16.43927,-17.65353 -4.79479,-15.00706 q -0.52929,-1.68129 -0.74724,-4.01642 l -0.24908,0 q -0.15567,1.96151 -0.77837,3.89188 l -4.85706,15.1316 11.42654,0 z"
         style="font-style:normal;font-variant:normal;font-weight:bold;font-stretch:normal;font-family:'Segoe UI';-inkscape-font-specification:'Segoe UI Bold';fill:#ff0000;stroke:#000000;stroke-width:2.1;stroke-linecap:round;stroke-linejoin:round;stroke-miterlimit:4;stroke-dasharray:none;stroke-opacity:1"
         id="path4301" />
      <path
         d="m 327.97286,554.04132 -10.0566,0 0,-44.64756 10.0566,0 0,44.64756 z"
         style="font-style:normal;font-variant:normal;font-weight:bold;font-stretch:normal;font-family:'Segoe UI';-inkscape-font-specification:'Segoe UI Bold';fill:#ff0000;stroke:#000000;stroke-width:2.1;stroke-linecap:round;stroke-linejoin:round;stroke-miterlimit:4;stroke-dasharray:none;stroke-opacity:1"
         id="path4303" />
      <path
         d="m 369.44466,517.58226 -12.73421,0 0,36.45906 -10.08773,0 0,-36.45906 -12.67194,0 0,-8.1885 35.49388,0 0,8.1885 z"
         style="font-style:normal;font-variant:normal;font-weight:bold;font-stretch:normal;font-family:'Segoe UI';-inkscape-font-specification:'Segoe UI Bold';fill:#ff0000;stroke:#000000;stroke-width:2.1;stroke-linecap:round;stroke-linejoin:round;stroke-miterlimit:4;stroke-dasharray:none;stroke-opacity:1"
         id="path4305" />
    </g>
    <text
       xml:space="preserve"
       style="font-style:normal;font-weight:normal;font-size:72.34246063px;line-height:125%;font-family:sans-serif;letter-spacing:0px;word-spacing:0px;fill:#000080;fill-opacity:1;stroke:none;stroke-width:1px;stroke-linecap:butt;stroke-linejoin:miter;stroke-opacity:1;"
       x="162.90138"
       y="740.73889"
       id="text4294"
       sodipodi:linespacing="125%"><tspan
         sodipodi:role="line"
         id="tspan4296"
         x="162.90138"
         y="740.73889">it's fun!</tspan></text>
  </g>
</svg>
